<svg width="24" height="24" viewBox="0 0 24 24" fill="none" xmlns="http://www.w3.org/2000/svg">
  <circle cx="12" cy="12" r="8.5" stroke="#666766" stroke-width="1.5"/>
  <path d="M12 3.5C9.33333 6.5 8 9.5 8 12C8 14.5 9.33333 17.5 12 20.5C14.6667 17.5 16 14.5 16 12C16 9.5 14.6667 6.5 12 3.5Z" stroke="#666766" stroke-width="1.5" stroke-linecap="round" stroke-linejoin="round"/>
  <path d="M3.5 12H20.5" stroke="#666766" stroke-width="1.5" stroke-linecap="round"/>
  <path d="M12 3.5C13.5 5 14.25 8 14.25 12C14.25 16 13.5 19 12 20.5" stroke="#666766" stroke-width="1.5" stroke-linecap="round"/>
  <path d="M12 3.5C10.5 5 9.75 8 9.75 12C9.75 16 10.5 19 12 20.5" stroke="#666766" stroke-width="1.5" stroke-linecap="round"/>
</svg>
